<svg width="932" height="103" viewBox="0 0 932 103" fill="none" xmlns="http://www.w3.org/2000/svg">
<path d="M270 52.7263H834" stroke="#D3D3D3"/>
<path d="M887.588 93.638C911.011 89.7236 926.826 67.5619 922.912 44.1385C918.997 20.7151 896.836 4.89993 873.412 8.81436C849.989 12.7288 834.174 34.8905 838.088 58.3139C842.003 81.7373 864.164 97.5525 887.588 93.638Z" stroke="#F7F5F5" stroke-width="3"/>
<path d="M836.855 60.0406L869.404 54.6013" stroke="#F7F5F5" stroke-width="3"/>
<path d="M892.09 50.8102L924.638 45.3708" stroke="#F7F5F5" stroke-width="3"/>
<path d="M883.299 64.9523C890.109 63.8144 894.706 57.372 893.568 50.5629C892.43 43.7538 885.988 39.1564 879.179 40.2943C872.37 41.4322 867.772 47.8745 868.91 54.6837C870.048 61.4928 876.49 66.0902 883.299 64.9523Z" stroke="#F7F5F5" stroke-width="3"/>
<path d="M882.311 59.0344C885.852 58.4427 888.243 55.0926 887.651 51.5519C887.059 48.0112 883.709 45.6205 880.169 46.2122C876.628 46.8039 874.237 50.1539 874.829 53.6947C875.421 57.2354 878.771 59.6261 882.311 59.0344Z" stroke="#F7F5F5" stroke-width="3"/>
</svg>
