<svg width="91" height="91" viewBox="0 0 91 91" fill="none" xmlns="http://www.w3.org/2000/svg">
<path d="M52.5877 87.638C76.0111 83.7236 91.8262 61.5619 87.9118 38.1385C83.9974 14.7151 61.8357 -1.10007 38.4123 2.81436C14.9889 6.72878 -0.826302 28.8905 3.08813 52.3139C7.00255 75.7373 29.1643 91.5525 52.5877 87.638Z" stroke="#F7F5F5" stroke-width="3"/>
<path d="M1.85498 54.0406L34.404 48.6013" stroke="#F7F5F5" stroke-width="3"/>
<path d="M57.09 44.8102L89.638 39.3708" stroke="#F7F5F5" stroke-width="3"/>
<path d="M48.2994 58.9523C55.1085 57.8144 59.706 51.372 58.568 44.5629C57.4301 37.7538 50.9878 33.1564 44.1786 34.2943C37.3695 35.4322 32.7721 41.8745 33.91 48.6837C35.0479 55.4928 41.4903 60.0902 48.2994 58.9523Z" stroke="#F7F5F5" stroke-width="3"/>
<path d="M47.3114 53.0344C50.8521 52.4427 53.2428 49.0926 52.6511 45.5519C52.0594 42.0112 48.7093 39.6205 45.1686 40.2122C41.6279 40.8039 39.2372 44.1539 39.8289 47.6947C40.4206 51.2354 43.7706 53.6261 47.3114 53.0344Z" stroke="#F7F5F5" stroke-width="3"/>
</svg>
