<svg width="654" height="91" viewBox="0 0 654 91" fill="none" xmlns="http://www.w3.org/2000/svg">
<path d="M-2 46.7263H562" stroke="#D3D3D3"/>
<path d="M615.588 87.638C639.011 83.7236 654.826 61.5619 650.912 38.1385C646.997 14.7151 624.836 -1.10007 601.412 2.81436C577.989 6.72878 562.174 28.8905 566.088 52.3139C570.003 75.7373 592.164 91.5525 615.588 87.638Z" stroke="#F7F5F5" stroke-width="3"/>
<path d="M564.855 54.0406L597.404 48.6013" stroke="#F7F5F5" stroke-width="3"/>
<path d="M620.09 44.8102L652.638 39.3708" stroke="#F7F5F5" stroke-width="3"/>
<path d="M611.299 58.9523C618.109 57.8144 622.706 51.372 621.568 44.5629C620.43 37.7538 613.988 33.1564 607.179 34.2943C600.37 35.4322 595.772 41.8745 596.91 48.6837C598.048 55.4928 604.49 60.0902 611.299 58.9523Z" stroke="#F7F5F5" stroke-width="3"/>
<path d="M610.311 53.0344C613.852 52.4427 616.243 49.0926 615.651 45.5519C615.059 42.0112 611.709 39.6205 608.169 40.2122C604.628 40.8039 602.237 44.1539 602.829 47.6947C603.421 51.2354 606.771 53.6261 610.311 53.0344Z" stroke="#F7F5F5" stroke-width="3"/>
</svg>
